<svg width="88" height="262" viewBox="0 0 88 262" fill="none" xmlns="http://www.w3.org/2000/svg">
<path d="M0.292893 253.293C-0.0976311 253.683 -0.0976311 254.317 0.292893 254.707L6.65685 261.071C7.04738 261.462 7.68054 261.462 8.07107 261.071C8.46159 260.681 8.46159 260.047 8.07107 259.657L2.41421 254L8.07107 248.343C8.46159 247.953 8.46159 247.319 8.07107 246.929C7.68054 246.538 7.04738 246.538 6.65685 246.929L0.292893 253.293ZM85 0.5C85 48.1992 87.1482 111.444 77.6214 162.794C72.8586 188.465 65.1962 211.043 52.9766 227.184C40.7942 243.277 24.0665 253 1 253V255C24.7397 255 42.04 244.945 54.5712 228.391C67.0653 211.887 74.8021 188.953 79.5878 163.158C89.1579 111.575 87 48.0699 87 0.5H85Z" fill="black"/>
</svg>
